<svg width="87" height="87" viewBox="0 0 87 87" fill="none" xmlns="http://www.w3.org/2000/svg">
<path d="M75.2762 0H11.7239C5.24931 0 0.000427246 5.24867 0.000427246 11.7234V75.2761C0.000427246 81.7509 5.2491 86.9996 11.7239 86.9996H43.0675L43.121 55.9106H35.0441C33.9944 55.9106 33.1425 55.0619 33.1384 54.0122L33.0997 43.991C33.0957 42.9356 33.9502 42.0779 35.0056 42.0779H43.0678V32.3948C43.0678 21.1577 49.9307 15.039 59.9549 15.039H68.1806C69.233 15.039 70.0864 15.8922 70.0864 16.9449V25.3948C70.0864 26.447 69.2337 27.3 68.1817 27.3007L63.1337 27.303C57.6822 27.303 56.6266 29.8935 56.6266 33.6952V42.0781H68.6054C69.7468 42.0781 70.6323 43.0748 70.4978 44.2083L69.3101 54.2295C69.1964 55.1885 68.3832 55.9111 67.4176 55.9111H56.68L56.6266 87H75.2766C81.7511 87 86.9998 81.7513 86.9998 75.2768V11.7234C86.9996 5.24867 81.7509 0 75.2762 0Z" fill="white"/>
</svg>
