<svg width="212" height="47" viewBox="0 0 212 47" fill="none" xmlns="http://www.w3.org/2000/svg">
<path d="M24.1818 12.375C23.9432 11.5455 23.608 10.8125 23.1761 10.1761C22.7443 9.52841 22.2159 8.98295 21.5909 8.53977C20.9773 8.08523 20.2727 7.73864 19.4773 7.5C18.6932 7.26136 17.8239 7.14205 16.8693 7.14205C15.0852 7.14205 13.517 7.58523 12.1648 8.47159C10.8239 9.35795 9.77841 10.6477 9.02841 12.3409C8.27841 14.0227 7.90341 16.0795 7.90341 18.5114C7.90341 20.9432 8.27273 23.0114 9.01136 24.7159C9.75 26.4205 10.7955 27.7216 12.1477 28.6193C13.5 29.5057 15.0966 29.9489 16.9375 29.9489C18.608 29.9489 20.0341 29.6534 21.2159 29.0625C22.4091 28.4602 23.3182 27.6136 23.9432 26.5227C24.5795 25.4318 24.8977 24.142 24.8977 22.6534L26.3977 22.875H17.3977V17.3182H32.0057V21.7159C32.0057 24.7841 31.358 27.4205 30.0625 29.625C28.767 31.8182 26.983 33.5114 24.7102 34.7045C22.4375 35.8864 19.8352 36.4773 16.9034 36.4773C13.6307 36.4773 10.7557 35.7557 8.27841 34.3125C5.80114 32.858 3.86932 30.7955 2.48295 28.125C1.10795 25.4432 0.420455 22.2614 0.420455 18.5795C0.420455 15.75 0.829545 13.2273 1.64773 11.0114C2.47727 8.78409 3.63636 6.89773 5.125 5.35227C6.61364 3.80682 8.34659 2.63068 10.3239 1.82386C12.3011 1.01704 14.4432 0.613635 16.75 0.613635C18.7273 0.613635 20.5682 0.903408 22.2727 1.48295C23.9773 2.05114 25.4886 2.85795 26.8068 3.90341C28.1364 4.94886 29.2216 6.19318 30.0625 7.63636C30.9034 9.06818 31.4432 10.6477 31.6818 12.375H24.1818ZM44.6747 1.09091V36H37.4134V1.09091H44.6747ZM67.2812 24.8523V9.81818H74.5426V36H67.571V31.2443H67.2983C66.7074 32.7784 65.7244 34.0114 64.3494 34.9432C62.9858 35.875 61.321 36.3409 59.3551 36.3409C57.6051 36.3409 56.0653 35.9432 54.7358 35.1477C53.4063 34.3523 52.3665 33.2216 51.6165 31.7557C50.8778 30.2898 50.5028 28.5341 50.4915 26.4886V9.81818H57.7528V25.1932C57.7642 26.7386 58.179 27.9602 58.9972 28.858C59.8153 29.7557 60.9119 30.2045 62.2869 30.2045C63.1619 30.2045 63.9801 30.0057 64.7415 29.608C65.5028 29.1989 66.1165 28.5966 66.5824 27.8011C67.0597 27.0057 67.2926 26.0227 67.2812 24.8523ZM80.3509 36V9.81818H87.3906V14.3864H87.6634C88.1406 12.7614 88.9418 11.5341 90.0668 10.7045C91.1918 9.86364 92.4872 9.44318 93.9531 9.44318C94.3168 9.44318 94.7088 9.46591 95.1293 9.51136C95.5497 9.55682 95.919 9.61932 96.2372 9.69886V16.142C95.8963 16.0398 95.4247 15.9489 94.8224 15.8693C94.2202 15.7898 93.669 15.75 93.169 15.75C92.1009 15.75 91.1463 15.983 90.3054 16.4489C89.4759 16.9034 88.8168 17.5398 88.3281 18.358C87.8509 19.1761 87.6122 20.1193 87.6122 21.1875V36H80.3509ZM110.568 46.3636C108.216 46.3636 106.199 46.0398 104.517 45.392C102.847 44.7557 101.517 43.8864 100.528 42.7841C99.5398 41.6818 98.8977 40.4432 98.6023 39.0682L105.318 38.1648C105.523 38.6875 105.847 39.1761 106.29 39.6307C106.733 40.0852 107.318 40.4489 108.045 40.7216C108.784 41.0057 109.682 41.1477 110.739 41.1477C112.318 41.1477 113.619 40.7614 114.642 39.9886C115.676 39.2273 116.193 37.9489 116.193 36.1534V31.3636H115.886C115.568 32.0909 115.091 32.7784 114.455 33.4261C113.818 34.0739 113 34.6023 112 35.0114C111 35.4205 109.807 35.625 108.42 35.625C106.455 35.625 104.665 35.1705 103.051 34.2614C101.449 33.3409 100.17 31.9375 99.2159 30.0511C98.2727 28.1534 97.8011 25.7557 97.8011 22.858C97.8011 19.892 98.2841 17.4148 99.25 15.4261C100.216 13.4375 101.5 11.9489 103.102 10.9602C104.716 9.97159 106.483 9.47727 108.403 9.47727C109.869 9.47727 111.097 9.72727 112.085 10.2273C113.074 10.7159 113.869 11.3295 114.472 12.0682C115.085 12.7955 115.557 13.5114 115.886 14.2159H116.159V9.81818H123.369V36.2557C123.369 38.483 122.824 40.3466 121.733 41.8466C120.642 43.3466 119.131 44.4716 117.199 45.2216C115.278 45.983 113.068 46.3636 110.568 46.3636ZM110.722 30.1705C111.892 30.1705 112.881 29.8807 113.688 29.3011C114.506 28.7102 115.131 27.8693 115.562 26.7784C116.006 25.6761 116.227 24.358 116.227 22.8239C116.227 21.2898 116.011 19.9602 115.58 18.8352C115.148 17.6989 114.523 16.8182 113.705 16.1932C112.886 15.5682 111.892 15.2557 110.722 15.2557C109.528 15.2557 108.523 15.5795 107.705 16.2273C106.886 16.8636 106.267 17.75 105.847 18.8864C105.426 20.0227 105.216 21.3352 105.216 22.8239C105.216 24.3352 105.426 25.642 105.847 26.7443C106.278 27.8352 106.898 28.6818 107.705 29.2841C108.523 29.875 109.528 30.1705 110.722 30.1705ZM141.08 36.5114C138.386 36.5114 136.068 35.9659 134.125 34.875C132.193 33.7727 130.705 32.2159 129.659 30.2045C128.614 28.1818 128.091 25.7898 128.091 23.0284C128.091 20.3352 128.614 17.9716 129.659 15.9375C130.705 13.9034 132.176 12.3182 134.074 11.1818C135.983 10.0455 138.222 9.47727 140.79 9.47727C142.517 9.47727 144.125 9.75568 145.614 10.3125C147.114 10.858 148.42 11.6818 149.534 12.7841C150.659 13.8864 151.534 15.2727 152.159 16.9432C152.784 18.6023 153.097 20.5455 153.097 22.7727V24.767H130.989V20.267H146.261C146.261 19.2216 146.034 18.2955 145.58 17.4886C145.125 16.6818 144.494 16.0511 143.688 15.5966C142.892 15.1307 141.966 14.8977 140.909 14.8977C139.807 14.8977 138.83 15.1534 137.977 15.6648C137.136 16.1648 136.477 16.8409 136 17.6932C135.523 18.5341 135.278 19.4716 135.267 20.5057V24.7841C135.267 26.0795 135.506 27.1989 135.983 28.142C136.472 29.0852 137.159 29.8125 138.045 30.3239C138.932 30.8352 139.983 31.0909 141.199 31.0909C142.006 31.0909 142.744 30.9773 143.415 30.75C144.085 30.5227 144.659 30.1818 145.136 29.7273C145.614 29.2727 145.977 28.7159 146.227 28.0568L152.943 28.5C152.602 30.1136 151.903 31.5227 150.847 32.7273C149.801 33.9205 148.449 34.8523 146.79 35.5227C145.142 36.1818 143.239 36.5114 141.08 36.5114ZM169.767 36.5114C167.074 36.5114 164.756 35.9659 162.812 34.875C160.881 33.7727 159.392 32.2159 158.347 30.2045C157.301 28.1818 156.778 25.7898 156.778 23.0284C156.778 20.3352 157.301 17.9716 158.347 15.9375C159.392 13.9034 160.864 12.3182 162.761 11.1818C164.67 10.0455 166.909 9.47727 169.477 9.47727C171.205 9.47727 172.813 9.75568 174.301 10.3125C175.801 10.858 177.108 11.6818 178.222 12.7841C179.347 13.8864 180.222 15.2727 180.847 16.9432C181.472 18.6023 181.784 20.5455 181.784 22.7727V24.767H159.676V20.267H174.949C174.949 19.2216 174.722 18.2955 174.267 17.4886C173.813 16.6818 173.182 16.0511 172.375 15.5966C171.58 15.1307 170.653 14.8977 169.597 14.8977C168.494 14.8977 167.517 15.1534 166.665 15.6648C165.824 16.1648 165.165 16.8409 164.688 17.6932C164.21 18.5341 163.966 19.4716 163.955 20.5057V24.7841C163.955 26.0795 164.193 27.1989 164.67 28.142C165.159 29.0852 165.847 29.8125 166.733 30.3239C167.619 30.8352 168.67 31.0909 169.886 31.0909C170.693 31.0909 171.432 30.9773 172.102 30.75C172.773 30.5227 173.347 30.1818 173.824 29.7273C174.301 29.2727 174.665 28.7159 174.915 28.0568L181.631 28.5C181.29 30.1136 180.591 31.5227 179.534 32.7273C178.489 33.9205 177.136 34.8523 175.477 35.5227C173.83 36.1818 171.926 36.5114 169.767 36.5114ZM193.102 28.4659L193.119 19.7557H194.176L202.562 9.81818H210.898L199.631 22.9773H197.909L193.102 28.4659ZM186.523 36V1.09091H193.784V36H186.523ZM202.886 36L195.182 24.5966L200.023 19.4659L211.392 36H202.886Z" fill="black"/>
<path d="M24.1818 12.375L23.2208 12.6515L23.4289 13.375H24.1818V12.375ZM23.1761 10.1761L22.3441 10.7309L22.3487 10.7376L23.1761 10.1761ZM21.5909 8.53977L20.9957 9.34333L21.004 9.34951L21.0125 9.35551L21.5909 8.53977ZM19.4773 7.5L19.1861 8.45668L19.1899 8.45783L19.4773 7.5ZM12.1648 8.47159L11.6166 7.63523L11.6133 7.63737L12.1648 8.47159ZM9.02841 12.3409L9.94171 12.7482L9.94273 12.7459L9.02841 12.3409ZM12.1477 28.6193L11.5946 29.4525L11.5995 29.4557L12.1477 28.6193ZM21.2159 29.0625L21.6631 29.9569L21.6665 29.9552L21.2159 29.0625ZM23.9432 26.5227L23.0794 26.0188L23.0755 26.0256L23.9432 26.5227ZM24.8977 22.6534L25.0439 21.6641L23.8977 21.4948V22.6534H24.8977ZM26.3977 22.875V23.875L26.5439 21.8857L26.3977 22.875ZM17.3977 22.875H16.3977V23.875H17.3977V22.875ZM17.3977 17.3182V16.3182H16.3977V17.3182H17.3977ZM32.0057 17.3182H33.0057V16.3182H32.0057V17.3182ZM30.0625 29.625L30.9235 30.1336L30.9247 30.1316L30.0625 29.625ZM24.7102 34.7045L25.1716 35.5918L25.1751 35.5899L24.7102 34.7045ZM8.27841 34.3125L7.77208 35.1748L7.77503 35.1766L8.27841 34.3125ZM2.48295 28.125L1.59309 28.5812L1.59543 28.5858L2.48295 28.125ZM1.64773 11.0114L0.710611 10.6623L0.709631 10.665L1.64773 11.0114ZM5.125 5.35227L5.84522 6.04602L5.84522 6.04602L5.125 5.35227ZM10.3239 1.82386L9.94606 0.897976L9.94606 0.897976L10.3239 1.82386ZM22.2727 1.48295L21.9508 2.42974L21.9565 2.43164L22.2727 1.48295ZM26.8068 3.90341L26.1854 4.68691L26.1887 4.68949L26.8068 3.90341ZM30.0625 7.63636L29.1985 8.13981L29.2002 8.14278L30.0625 7.63636ZM31.6818 12.375V13.375H32.8295L32.6724 12.2381L31.6818 12.375ZM25.1428 12.0985C24.8785 11.1798 24.5015 10.3483 24.0036 9.61463L22.3487 10.7376C22.7144 11.2767 23.0078 11.9111 23.2208 12.6515L25.1428 12.0985ZM24.0082 9.62143C23.5096 8.87358 22.8958 8.23914 22.1693 7.72404L21.0125 9.35551C21.5361 9.72677 21.979 10.1832 22.3441 10.7308L24.0082 9.62143ZM22.1861 7.73622C21.4718 7.20705 20.6612 6.81113 19.7646 6.54217L19.1899 8.45783C19.8843 8.66614 20.4828 8.9634 20.9957 9.34333L22.1861 7.73622ZM19.7684 6.54333C18.8759 6.27169 17.9067 6.14205 16.8693 6.14205V8.14205C17.741 8.14205 18.5104 8.25104 19.1861 8.45667L19.7684 6.54333ZM16.8693 6.14205C14.9114 6.14205 13.1484 6.63119 11.6166 7.63524L12.713 9.30794C13.8857 8.53927 15.2591 8.14205 16.8693 8.14205V6.14205ZM11.6133 7.63737C10.0898 8.64446 8.92948 10.0951 8.11409 11.9359L9.94273 12.7459C10.6273 11.2003 11.5579 10.0714 12.7162 9.30581L11.6133 7.63737ZM8.11511 11.9336C7.29276 13.7777 6.90341 15.982 6.90341 18.5114H8.90341C8.90341 16.177 9.26406 14.2678 9.94171 12.7482L8.11511 11.9336ZM6.90341 18.5114C6.90341 21.0397 7.28677 23.2511 8.09381 25.1135L9.92892 24.3183C9.25868 22.7716 8.90341 20.8467 8.90341 18.5114H6.90341ZM8.09381 25.1135C8.89789 26.9691 10.059 28.433 11.5946 29.4524L12.7008 27.7862C11.5319 27.0102 10.6021 25.8718 9.92892 24.3183L8.09381 25.1135ZM11.5995 29.4557C13.1365 30.4631 14.9296 30.9489 16.9375 30.9489V28.9489C15.2636 28.9489 13.8635 28.5483 12.6959 27.783L11.5995 29.4557ZM16.9375 30.9489C18.7233 30.9489 20.3107 30.6332 21.6631 29.9569L20.7687 28.1681C19.7575 28.6737 18.4926 28.9489 16.9375 28.9489V30.9489ZM21.6665 29.9552C23.0229 29.2706 24.0823 28.2915 24.8109 27.0198L23.0755 26.0256C22.5541 26.9358 21.7953 27.6499 20.7653 28.1698L21.6665 29.9552ZM24.807 27.0266C25.5473 25.7574 25.8977 24.2872 25.8977 22.6534H23.8977C23.8977 23.9969 23.6118 25.1062 23.0794 26.0189L24.807 27.0266ZM24.7516 23.6427L26.2516 23.8643L26.5439 21.8857L25.0439 21.6641L24.7516 23.6427ZM26.3977 21.875H17.3977V23.875H26.3977V21.875ZM18.3977 22.875V17.3182H16.3977V22.875H18.3977ZM17.3977 18.3182H32.0057V16.3182H17.3977V18.3182ZM31.0057 17.3182V21.7159H33.0057V17.3182H31.0057ZM31.0057 21.7159C31.0057 24.6417 30.389 27.0955 29.2003 29.1184L30.9247 30.1316C32.3269 27.7454 33.0057 24.9265 33.0057 21.7159H31.0057ZM29.2015 29.1164C28.0013 31.1483 26.355 32.7116 24.2454 33.8191L25.1751 35.5899C27.6109 34.3111 29.5328 32.488 30.9235 30.1336L29.2015 29.1164ZM24.2489 33.8173C22.138 34.915 19.698 35.4773 16.9034 35.4773V37.4773C19.9725 37.4773 22.737 36.8578 25.1716 35.5918L24.2489 33.8173ZM16.9034 35.4773C13.7821 35.4773 11.0857 34.7906 8.78179 33.4484L7.77503 35.1766C10.4257 36.7208 13.4793 37.4773 16.9034 37.4773V35.4773ZM8.78474 33.4502C6.47768 32.0956 4.67442 30.1759 3.37048 27.6642L1.59543 28.5858C3.06421 31.415 5.12459 33.6204 7.77208 35.1748L8.78474 33.4502ZM3.37281 27.6688C2.08452 25.1561 1.42045 22.1374 1.42045 18.5795H-0.579545C-0.579545 22.3854 0.131391 25.7303 1.5931 28.5812L3.37281 27.6688ZM1.42045 18.5795C1.42045 15.8454 1.81579 13.4432 2.58582 11.3577L0.709631 10.665C-0.156704 13.0113 -0.579545 15.6546 -0.579545 18.5795H1.42045ZM2.58484 11.3604C3.37168 9.24778 4.46154 7.48251 5.84522 6.04602L4.40478 4.65853C2.81119 6.31295 1.58287 8.3204 0.710615 10.6623L2.58484 11.3604ZM5.84522 6.04602C7.23763 4.60046 8.85411 3.50364 10.7017 2.74975L9.94606 0.897976C7.83908 1.75772 5.98965 3.01317 4.40478 4.65853L5.84522 6.04602ZM10.7017 2.74975C12.5497 1.99568 14.5623 1.61364 16.75 1.61364V-0.386365C14.3241 -0.386365 12.0526 0.0384077 9.94606 0.897976L10.7017 2.74975ZM16.75 1.61364C18.6285 1.61364 20.3596 1.88872 21.9508 2.42973L22.5946 0.536181C20.7767 -0.0818997 18.8261 -0.386365 16.75 -0.386365V1.61364ZM21.9565 2.43164C23.558 2.96548 24.9646 3.71867 26.1854 4.68691L27.4282 3.11991C26.0127 1.99724 24.3965 1.13679 22.589 0.534271L21.9565 2.43164ZM26.1887 4.68949C27.4205 5.65807 28.4218 6.80689 29.1985 8.13981L30.9265 7.13291C30.0214 5.57947 28.8522 4.23965 27.4249 3.11732L26.1887 4.68949ZM29.2002 8.14278C29.9711 9.45542 30.4697 10.9084 30.6912 12.5119L32.6724 12.2381C32.4167 10.3871 31.8357 8.68094 30.9248 7.12994L29.2002 8.14278ZM31.6818 11.375H24.1818V13.375H31.6818V11.375ZM44.6747 1.09091H45.6747V0.0909081H44.6747V1.09091ZM44.6747 36V37H45.6747V36H44.6747ZM37.4134 36H36.4134V37H37.4134V36ZM37.4134 1.09091V0.0909081H36.4134V1.09091H37.4134ZM43.6747 1.09091V36H45.6747V1.09091H43.6747ZM44.6747 35H37.4134V37H44.6747V35ZM38.4134 36V1.09091H36.4134V36H38.4134ZM37.4134 2.09091H44.6747V0.0909081H37.4134V2.09091ZM67.2812 24.8523L66.2812 24.8523L66.2813 24.862L67.2812 24.8523ZM67.2812 9.81818V8.81818H66.2812V9.81818H67.2812ZM74.5426 9.81818H75.5426V8.81818H74.5426V9.81818ZM74.5426 36V37H75.5426V36H74.5426ZM67.571 36H66.571V37H67.571V36ZM67.571 31.2443H68.571V30.2443H67.571V31.2443ZM67.2983 31.2443V30.2443H66.6119L66.3651 30.8849L67.2983 31.2443ZM64.3494 34.9432L63.7884 34.1154L63.7852 34.1175L64.3494 34.9432ZM54.7358 35.1477L55.2492 34.2896L55.2492 34.2896L54.7358 35.1477ZM51.6165 31.7557L50.7234 32.2057L50.7262 32.2112L51.6165 31.7557ZM50.4915 26.4886L49.4915 26.4886L49.4915 26.4942L50.4915 26.4886ZM50.4915 9.81818V8.81818H49.4915V9.81818H50.4915ZM57.7528 9.81818H58.7528V8.81818H57.7528V9.81818ZM57.7528 25.1932H56.7528L56.7529 25.2005L57.7528 25.1932ZM58.9972 28.858L59.7363 28.1844L59.7363 28.1844L58.9972 28.858ZM64.7415 29.608L65.2045 30.4944L65.2148 30.4888L64.7415 29.608ZM66.5824 27.8011L65.7248 27.2866L65.7195 27.2957L66.5824 27.8011ZM68.2812 24.8523V9.81818H66.2812V24.8523H68.2812ZM67.2812 10.8182H74.5426V8.81818H67.2812V10.8182ZM73.5426 9.81818V36H75.5426V9.81818H73.5426ZM74.5426 35H67.571V37H74.5426V35ZM68.571 36V31.2443H66.571V36H68.571ZM67.571 30.2443H67.2983V32.2443H67.571V30.2443ZM66.3651 30.8849C65.8484 32.2264 64.9964 33.2968 63.7884 34.1154L64.9104 35.771C66.4525 34.726 67.5664 33.3304 68.2315 31.6038L66.3651 30.8849ZM63.7852 34.1175C62.6174 34.9156 61.1588 35.3409 59.3551 35.3409V37.3409C61.4833 37.3409 63.3542 36.8344 64.9136 35.7688L63.7852 34.1175ZM59.3551 35.3409C57.762 35.3409 56.4043 34.9806 55.2492 34.2896L54.2224 36.0059C55.7264 36.9057 57.4482 37.3409 59.3551 37.3409V35.3409ZM55.2492 34.2896C54.0908 33.5965 53.1769 32.6102 52.5067 31.3002L50.7262 32.2112C51.556 33.833 52.7217 35.108 54.2224 36.0059L55.2492 34.2896ZM52.5095 31.3057C51.8553 30.0074 51.5022 28.4113 51.4915 26.4831L49.4915 26.4942C49.5035 28.6569 49.9003 30.5721 50.7234 32.2057L52.5095 31.3057ZM51.4915 26.4886V9.81818H49.4915V26.4886H51.4915ZM50.4915 10.8182H57.7528V8.81818H50.4915V10.8182ZM56.7528 9.81818V25.1932H58.7528V9.81818H56.7528ZM56.7529 25.2005C56.7655 26.9232 57.2323 28.406 58.2581 29.5316L59.7363 28.1844C59.1257 27.5144 58.7629 26.5541 58.7528 25.1858L56.7529 25.2005ZM58.2581 29.5316C59.2917 30.6657 60.6717 31.2045 62.2869 31.2045V29.2045C61.1522 29.2045 60.3389 28.8456 59.7363 28.1844L58.2581 29.5316ZM62.2869 31.2045C63.3201 31.2045 64.2975 30.9681 65.2045 30.4943L64.2785 28.7216C63.6628 29.0432 63.0038 29.2045 62.2869 29.2045V31.2045ZM65.2148 30.4888C66.1489 29.9869 66.8929 29.2496 67.4453 28.3065L65.7195 27.2957C65.34 27.9436 64.8568 28.4108 64.2682 28.7271L65.2148 30.4888ZM67.4399 28.3156C68.034 27.3254 68.2939 26.1497 68.2812 24.8426L66.2813 24.862C66.2913 25.8957 66.0853 26.686 65.7249 27.2866L67.4399 28.3156ZM80.3509 36H79.3509V37H80.3509V36ZM80.3509 9.81818V8.81818H79.3509V9.81818H80.3509ZM87.3906 9.81818H88.3906V8.81818H87.3906V9.81818ZM87.3906 14.3864H86.3906V15.3864H87.3906V14.3864ZM87.6634 14.3864V15.3864H88.4119L88.6228 14.6682L87.6634 14.3864ZM90.0668 10.7045L90.6602 11.5094L90.6655 11.5055L90.0668 10.7045ZM95.1293 9.51136L95.2367 8.51716L95.2367 8.51715L95.1293 9.51136ZM96.2372 9.69886H97.2372V8.91808L96.4797 8.72872L96.2372 9.69886ZM96.2372 16.142L95.9499 17.0999L97.2372 17.4861V16.142H96.2372ZM90.3054 16.4489L90.7859 17.3258L90.79 17.3236L90.3054 16.4489ZM88.3281 18.358L87.4695 17.8452L87.4643 17.8541L88.3281 18.358ZM87.6122 36V37H88.6122V36H87.6122ZM81.3509 36V9.81818H79.3509V36H81.3509ZM80.3509 10.8182H87.3906V8.81818H80.3509V10.8182ZM86.3906 9.81818V14.3864H88.3906V9.81818H86.3906ZM87.3906 15.3864H87.6634V13.3864H87.3906V15.3864ZM88.6228 14.6682C89.0519 13.2072 89.7458 12.1836 90.6602 11.5094L89.4733 9.89969C88.1377 10.8845 87.2293 12.3155 86.7039 14.1046L88.6228 14.6682ZM90.6655 11.5055C91.6097 10.7997 92.6929 10.4432 93.9531 10.4432V8.44318C92.2815 8.44318 90.7738 8.92754 89.4681 9.90358L90.6655 11.5055ZM93.9531 10.4432C94.2756 10.4432 94.6314 10.4634 95.0218 10.5056L95.2367 8.51715C94.7862 8.46845 94.3579 8.44318 93.9531 8.44318V10.4432ZM95.0218 10.5056C95.409 10.5474 95.7315 10.6032 95.9947 10.669L96.4797 8.72872C96.1066 8.63543 95.6904 8.5662 95.2367 8.51716L95.0218 10.5056ZM95.2372 9.69886V16.142H97.2372V9.69886H95.2372ZM96.5246 15.1842C96.1092 15.0596 95.5772 14.9603 94.9534 14.8779L94.6915 16.8607C95.2722 16.9374 95.6835 17.0199 95.9499 17.0999L96.5246 15.1842ZM94.9534 14.8779C94.3166 14.7938 93.7209 14.75 93.169 14.75V16.75C93.6171 16.75 94.1238 16.7857 94.6915 16.8607L94.9534 14.8779ZM93.169 14.75C91.9505 14.75 90.8259 15.0172 89.8208 15.5741L90.79 17.3236C91.4667 16.9487 92.2512 16.75 93.169 16.75V14.75ZM89.8249 15.5719C88.8379 16.1127 88.0488 16.8753 87.4696 17.8452L89.1867 18.8707C89.5847 18.2042 90.1138 17.6941 90.7859 17.3258L89.8249 15.5719ZM87.4643 17.8541C86.8869 18.844 86.6122 19.9653 86.6122 21.1875H88.6122C88.6122 20.2733 88.8148 19.5083 89.1919 18.8618L87.4643 17.8541ZM86.6122 21.1875V36H88.6122V21.1875H86.6122ZM87.6122 35H80.3509V37H87.6122V35ZM104.517 45.392L104.876 44.4589L104.873 44.4576L104.517 45.392ZM100.528 42.7841L99.784 43.4518L99.784 43.4518L100.528 42.7841ZM98.6023 39.0682L98.469 38.0771L97.3975 38.2212L97.6246 39.2783L98.6023 39.0682ZM105.318 38.1648L106.249 37.8004L105.963 37.069L105.185 37.1737L105.318 38.1648ZM106.29 39.6307L107.006 38.9326L107.006 38.9326L106.29 39.6307ZM108.045 40.7216L108.404 39.7882L108.397 39.7853L108.045 40.7216ZM114.642 39.9886L114.049 39.1833L114.039 39.1908L114.642 39.9886ZM116.193 31.3636H117.193V30.3636H116.193V31.3636ZM115.886 31.3636V30.3636H115.232L114.97 30.9628L115.886 31.3636ZM114.455 33.4261L115.168 34.127L115.168 34.127L114.455 33.4261ZM103.051 34.2614L102.553 35.1285L102.56 35.1326L103.051 34.2614ZM99.2159 30.0511L98.3204 30.4962L98.3236 30.5026L99.2159 30.0511ZM99.25 15.4261L98.3505 14.9892L98.3505 14.9892L99.25 15.4261ZM103.102 10.9602L102.58 10.1075L102.577 10.1092L103.102 10.9602ZM112.085 10.2273L111.634 11.1197L111.642 11.1238L112.085 10.2273ZM114.472 12.0682L113.697 12.7001L113.702 12.7066L113.707 12.7131L114.472 12.0682ZM115.886 14.2159L114.981 14.6396L115.25 15.2159H115.886V14.2159ZM116.159 14.2159V15.2159H117.159V14.2159H116.159ZM116.159 9.81818V8.81818H115.159V9.81818H116.159ZM123.369 9.81818H124.369V8.81818H123.369V9.81818ZM121.733 41.8466L120.924 41.2584L120.924 41.2584L121.733 41.8466ZM117.199 45.2216L116.837 44.2894L116.83 44.292L117.199 45.2216ZM113.688 29.3011L114.271 30.1133L114.273 30.1118L113.688 29.3011ZM115.562 26.7784L114.635 26.4054L114.633 26.4104L115.562 26.7784ZM115.58 18.8352L114.645 19.1904L114.646 19.1936L115.58 18.8352ZM107.705 16.2273L108.319 17.0167L108.325 17.0113L107.705 16.2273ZM105.847 18.8864L106.784 19.2334L106.784 19.2334L105.847 18.8864ZM105.847 26.7443L104.912 27.1007L104.917 27.1124L105.847 26.7443ZM107.705 29.2841L107.106 30.0854L107.113 30.0902L107.119 30.0948L107.705 29.2841ZM110.568 45.3636C108.303 45.3636 106.415 45.0512 104.876 44.4589L104.158 46.3252C105.983 47.0283 108.129 47.3636 110.568 47.3636V45.3636ZM104.873 44.4576C103.321 43.8663 102.135 43.0779 101.273 42.1164L99.784 43.4518C100.899 44.6948 102.372 45.6451 104.161 46.3265L104.873 44.4576ZM101.273 42.1164C100.394 41.1366 99.8369 40.0538 99.58 38.8581L97.6246 39.2783C97.9586 40.8326 98.6855 42.227 99.784 43.4518L101.273 42.1164ZM98.7356 40.0593L105.451 39.1558L105.185 37.1737L98.469 38.0771L98.7356 40.0593ZM104.387 38.5292C104.646 39.1917 105.049 39.791 105.574 40.3288L107.006 38.9326C106.644 38.5613 106.399 38.1833 106.249 37.8004L104.387 38.5292ZM105.574 40.3288C106.14 40.9094 106.86 41.3449 107.694 41.6579L108.397 39.7853C107.777 39.5529 107.326 39.261 107.006 38.9326L105.574 40.3288ZM107.686 41.6549C108.571 41.9951 109.598 42.1477 110.739 42.1477V40.1477C109.766 40.1477 108.997 40.0162 108.404 39.7882L107.686 41.6549ZM110.739 42.1477C112.484 42.1477 114.011 41.7184 115.245 40.7865L114.039 39.1908C113.227 39.8043 112.152 40.1477 110.739 40.1477V42.1477ZM115.235 40.7939C116.617 39.7761 117.193 38.1314 117.193 36.1534H115.193C115.193 37.7663 114.735 38.6784 114.049 39.1834L115.235 40.7939ZM117.193 36.1534V31.3636H115.193V36.1534H117.193ZM116.193 30.3636H115.886V32.3636H116.193V30.3636ZM114.97 30.9628C114.707 31.5638 114.304 32.1521 113.741 32.7253L115.168 34.127C115.877 33.4048 116.429 32.6181 116.803 31.7645L114.97 30.9628ZM113.741 32.7253C113.216 33.2596 112.519 33.7185 111.621 34.0858L112.379 35.9369C113.481 35.486 114.42 34.8881 115.168 34.127L113.741 32.7253ZM111.621 34.0858C110.77 34.434 109.712 34.625 108.42 34.625V36.625C109.901 36.625 111.23 36.4069 112.379 35.9369L111.621 34.0858ZM108.42 34.625C106.616 34.625 104.997 34.2096 103.542 33.3901L102.56 35.1326C104.333 36.1313 106.294 36.625 108.42 36.625V34.625ZM103.549 33.3943C102.14 32.5844 100.988 31.3378 100.108 29.5996L98.3236 30.5026C99.3532 32.5372 100.758 34.0974 102.553 35.1285L103.549 33.3943ZM100.111 29.6061C99.2574 27.8878 98.8011 25.655 98.8011 22.858H96.8011C96.8011 25.8564 97.288 28.419 98.3204 30.4962L100.111 29.6061ZM98.8011 22.858C98.8011 19.9942 99.2683 17.6773 100.15 15.863L98.3505 14.9892C97.2999 17.1523 96.8011 19.7899 96.8011 22.858H98.8011ZM100.15 15.863C101.047 14.0149 102.213 12.6839 103.627 11.8113L102.577 10.1092C100.787 11.2138 99.3847 12.8601 98.3505 14.9892L100.15 15.863ZM103.625 11.8129C105.079 10.9221 106.664 10.4773 108.403 10.4773V8.47727C106.301 8.47727 104.353 9.02108 102.58 10.1075L103.625 11.8129ZM108.403 10.4773C109.761 10.4773 110.823 10.7095 111.634 11.1196L112.537 9.33491C111.37 8.74506 109.978 8.47727 108.403 8.47727V10.4773ZM111.642 11.1238C112.523 11.5589 113.198 12.0885 113.697 12.7001L115.247 11.4362C114.541 10.5706 113.625 9.87293 112.528 9.33079L111.642 11.1238ZM113.707 12.7131C114.276 13.3875 114.695 14.0301 114.981 14.6396L116.792 13.7922C116.418 12.9927 115.894 12.2034 115.236 11.4233L113.707 12.7131ZM115.886 15.2159H116.159V13.2159H115.886V15.2159ZM117.159 14.2159V9.81818H115.159V14.2159H117.159ZM116.159 10.8182H123.369V8.81818H116.159V10.8182ZM122.369 9.81818V36.2557H124.369V9.81818H122.369ZM122.369 36.2557C122.369 38.3151 121.867 39.9614 120.924 41.2584L122.542 42.4348C123.78 40.7317 124.369 38.6508 124.369 36.2557H122.369ZM120.924 41.2584C119.959 42.5855 118.612 43.6004 116.837 44.2894L117.561 46.1538C119.65 45.3428 121.325 44.1077 122.542 42.4348L120.924 41.2584ZM116.83 44.292C115.049 44.9982 112.968 45.3636 110.568 45.3636V47.3636C113.169 47.3636 115.508 46.9677 117.567 46.1512L116.83 44.292ZM110.722 31.1705C112.063 31.1705 113.265 30.8356 114.271 30.1133L113.104 28.489C112.496 28.9257 111.721 29.1705 110.722 29.1705V31.1705ZM114.273 30.1118C115.27 29.392 116.002 28.3853 116.492 27.1465L114.633 26.4104C114.259 27.3533 113.742 28.0284 113.102 28.4905L114.273 30.1118ZM116.49 27.1514C116.993 25.9016 117.227 24.4503 117.227 22.8239H115.227C115.227 24.2657 115.019 25.4507 114.635 26.4054L116.49 27.1514ZM117.227 22.8239C117.227 21.1993 116.999 19.7427 116.513 18.4769L114.646 19.1936C115.024 20.1777 115.227 21.3803 115.227 22.8239H117.227ZM116.514 18.48C116.028 17.2014 115.303 16.1557 114.312 15.3985L113.098 16.9879C113.743 17.4807 114.267 18.1964 114.645 19.1904L116.514 18.48ZM114.312 15.3985C113.296 14.6224 112.08 14.2557 110.722 14.2557V16.2557C111.704 16.2557 112.477 16.5139 113.098 16.9879L114.312 15.3985ZM110.722 14.2557C109.337 14.2557 108.104 14.6359 107.084 15.4432L108.325 17.0113C108.942 16.5232 109.72 16.2557 110.722 16.2557V14.2557ZM107.091 15.4379C106.102 16.2068 105.383 17.2582 104.909 18.5394L106.784 19.2334C107.151 18.2418 107.671 17.5204 108.318 17.0166L107.091 15.4379ZM104.909 18.5394C104.439 19.8089 104.216 21.2429 104.216 22.8239H106.216C106.216 21.4275 106.413 20.2365 106.784 19.2334L104.909 18.5394ZM104.216 22.8239C104.216 24.4244 104.438 25.8577 104.912 27.1007L106.781 26.3879C106.414 25.4264 106.216 24.2461 106.216 22.8239H104.216ZM104.917 27.1124C105.405 28.3467 106.128 29.355 107.106 30.0854L108.303 28.4827C107.668 28.0086 107.151 27.3238 106.776 26.3763L104.917 27.1124ZM107.119 30.0948C108.137 30.83 109.358 31.1705 110.722 31.1705V29.1705C109.699 29.1705 108.908 28.92 108.29 28.4734L107.119 30.0948ZM134.125 34.875L133.629 35.7436L133.635 35.747L134.125 34.875ZM129.659 30.2045L128.771 30.6637L128.772 30.6657L129.659 30.2045ZM129.659 15.9375L128.77 15.4804L128.77 15.4804L129.659 15.9375ZM134.074 11.1818L133.562 10.3225L133.56 10.3239L134.074 11.1818ZM145.614 10.3125L145.263 11.2492L145.272 11.2523L145.614 10.3125ZM149.534 12.7841L148.831 13.4948L148.834 13.4984L149.534 12.7841ZM152.159 16.9432L151.222 17.2936L151.223 17.2957L152.159 16.9432ZM153.097 24.767V25.767H154.097V24.767H153.097ZM130.989 24.767H129.989V25.767H130.989V24.767ZM130.989 20.267V19.267H129.989V20.267H130.989ZM146.261 20.267V21.267H147.261V20.267H146.261ZM145.58 17.4886L144.708 17.9795L144.708 17.9795L145.58 17.4886ZM143.688 15.5966L143.182 16.4595L143.189 16.4637L143.197 16.4678L143.688 15.5966ZM137.977 15.6648L138.488 16.5243L138.492 16.5223L137.977 15.6648ZM136 17.6932L136.87 18.1868L136.873 18.1818L136 17.6932ZM135.267 20.5057L134.267 20.4947V20.5057H135.267ZM135.983 28.142L135.091 28.5936L135.095 28.6021L135.983 28.142ZM143.415 30.75L143.094 29.8029L143.094 29.8029L143.415 30.75ZM145.136 29.7273L144.447 29.0031L144.447 29.0031L145.136 29.7273ZM146.227 28.0568L146.293 27.059L145.555 27.0103L145.292 27.7022L146.227 28.0568ZM152.943 28.5L153.922 28.7067L154.16 27.5781L153.009 27.5022L152.943 28.5ZM150.847 32.7273L150.095 32.0678L150.094 32.0683L150.847 32.7273ZM146.79 35.5227L147.161 36.4512L147.164 36.4499L146.79 35.5227ZM141.08 35.5114C138.522 35.5114 136.38 34.9941 134.615 34.003L133.635 35.747C135.756 36.9377 138.251 37.5114 141.08 37.5114V35.5114ZM134.621 34.0064C132.859 33.0014 131.505 31.5876 130.546 29.7434L128.772 30.6657C129.904 32.8443 131.527 34.5441 133.629 35.7436L134.621 34.0064ZM130.547 29.7454C129.589 27.8917 129.091 25.6636 129.091 23.0284H127.091C127.091 25.9159 127.638 28.4719 128.771 30.6637L130.547 29.7454ZM129.091 23.0284C129.091 20.4661 129.588 18.2642 130.548 16.3946L128.77 15.4804C127.64 17.679 127.091 20.2044 127.091 23.0284H129.091ZM130.548 16.3946C131.512 14.5207 132.856 13.0768 134.588 12.0398L133.56 10.3239C131.497 11.5595 129.897 13.2862 128.77 15.4804L130.548 16.3946ZM134.585 12.0411C136.317 11.0104 138.373 10.4773 140.79 10.4773V8.47727C138.07 8.47727 135.649 9.0805 133.562 10.3225L134.585 12.0411ZM140.79 10.4773C142.408 10.4773 143.896 10.7377 145.263 11.2491L145.964 9.37588C144.354 8.77365 142.626 8.47727 140.79 8.47727V10.4773ZM145.272 11.2523C146.639 11.7493 147.822 12.4961 148.831 13.4948L150.238 12.0734C149.019 10.8676 147.588 9.96656 145.955 9.37271L145.272 11.2523ZM148.834 13.4984C149.842 14.4854 150.642 15.7421 151.223 17.2936L153.096 16.5928C152.426 14.8034 151.477 13.2874 150.234 12.0698L148.834 13.4984ZM151.223 17.2957C151.797 18.8174 152.097 20.6363 152.097 22.7727H154.097C154.097 20.4547 153.772 18.3872 153.095 16.5907L151.223 17.2957ZM152.097 22.7727V24.767H154.097V22.7727H152.097ZM153.097 23.767H130.989V25.767H153.097V23.767ZM131.989 24.767V20.267H129.989V24.767H131.989ZM130.989 21.267H146.261V19.267H130.989V21.267ZM147.261 20.267C147.261 19.0722 147 17.9729 146.451 16.9978L144.708 17.9795C145.068 18.618 145.261 19.371 145.261 20.267H147.261ZM146.451 16.9978C145.907 16.0318 145.144 15.2696 144.178 14.7253L143.197 16.4678C143.844 16.8327 144.343 17.3318 144.708 17.9795L146.451 16.9978ZM144.193 14.7337C143.223 14.1655 142.117 13.8977 140.909 13.8977V15.8977C141.815 15.8977 142.561 16.0958 143.182 16.4595L144.193 14.7337ZM140.909 13.8977C139.646 13.8977 138.487 14.1927 137.463 14.8073L138.492 16.5223C139.172 16.1141 139.968 15.8977 140.909 15.8977V13.8977ZM137.466 14.8052C136.475 15.3948 135.691 16.1988 135.127 17.2046L136.873 18.1818C137.264 17.483 137.798 16.9347 138.488 16.5243L137.466 14.8052ZM135.13 17.1996C134.564 18.1979 134.28 19.3034 134.267 20.4947L136.267 20.5167C136.277 19.6397 136.482 18.8702 136.87 18.1868L135.13 17.1996ZM134.267 20.5057V24.7841H136.267V20.5057H134.267ZM134.267 24.7841C134.267 26.2016 134.528 27.4823 135.091 28.5936L136.875 27.6905C136.483 26.9154 136.267 25.9575 136.267 24.7841H134.267ZM135.095 28.6021C135.668 29.7081 136.487 30.5794 137.546 31.19L138.545 29.4577C137.831 29.0456 137.275 28.4623 136.871 27.682L135.095 28.6021ZM137.546 31.19C138.61 31.8043 139.841 32.0909 141.199 32.0909V30.0909C140.125 30.0909 139.253 29.8662 138.545 29.4577L137.546 31.19ZM141.199 32.0909C142.1 32.0909 142.949 31.9639 143.736 31.6971L143.094 29.8029C142.54 29.9906 141.912 30.0909 141.199 30.0909V32.0909ZM143.736 31.6971C144.534 31.4267 145.236 31.0134 145.826 30.4514L144.447 29.0031C144.082 29.3502 143.637 29.6188 143.094 29.8029L143.736 31.6971ZM145.826 30.4514C146.419 29.8865 146.863 29.2006 147.162 28.4115L145.292 27.7022C145.092 28.2312 144.808 28.6589 144.447 29.0031L145.826 30.4514ZM146.161 29.0546L152.877 29.4978L153.009 27.5022L146.293 27.059L146.161 29.0546ZM151.965 28.2933C151.658 29.7442 151.035 30.9961 150.095 32.0678L151.598 33.3868C152.772 32.0494 153.546 30.4831 153.922 28.7067L151.965 28.2933ZM150.094 32.0683C149.165 33.1295 147.948 33.9762 146.415 34.5956L147.164 36.4499C148.95 35.7284 150.438 34.7115 151.599 33.3863L150.094 32.0683ZM146.418 34.5943C144.911 35.1971 143.138 35.5114 141.08 35.5114V37.5114C143.339 37.5114 145.373 37.1666 147.161 36.4512L146.418 34.5943ZM162.812 34.875L162.317 35.7436L162.323 35.747L162.812 34.875ZM158.347 30.2045L157.458 30.6637L157.459 30.6657L158.347 30.2045ZM158.347 15.9375L157.457 15.4804L157.457 15.4804L158.347 15.9375ZM162.761 11.1818L162.25 10.3225L162.248 10.3239L162.761 11.1818ZM174.301 10.3125L173.951 11.2492L173.959 11.2523L174.301 10.3125ZM178.222 12.7841L177.518 13.4948L177.522 13.4984L178.222 12.7841ZM180.847 16.9432L179.91 17.2936L179.911 17.2957L180.847 16.9432ZM181.784 24.767V25.767H182.784V24.767H181.784ZM159.676 24.767H158.676V25.767H159.676V24.767ZM159.676 20.267V19.267H158.676V20.267H159.676ZM174.949 20.267V21.267H175.949V20.267H174.949ZM174.267 17.4886L173.396 17.9795L173.396 17.9795L174.267 17.4886ZM172.375 15.5966L171.87 16.4595L171.877 16.4637L171.884 16.4678L172.375 15.5966ZM166.665 15.6648L167.176 16.5243L167.179 16.5223L166.665 15.6648ZM164.688 17.6932L165.557 18.1868L165.56 18.1818L164.688 17.6932ZM163.955 20.5057L162.955 20.4947V20.5057H163.955ZM164.67 28.142L163.778 28.5936L163.783 28.6021L164.67 28.142ZM172.102 30.75L171.781 29.8029L171.781 29.8029L172.102 30.75ZM173.824 29.7273L173.134 29.0031L173.134 29.0031L173.824 29.7273ZM174.915 28.0568L174.981 27.059L174.242 27.0103L173.98 27.7022L174.915 28.0568ZM181.631 28.5L182.609 28.7067L182.848 27.5781L181.697 27.5022L181.631 28.5ZM179.534 32.7273L178.782 32.0678L178.782 32.0683L179.534 32.7273ZM175.477 35.5227L175.849 36.4512L175.852 36.4499L175.477 35.5227ZM169.767 35.5114C167.21 35.5114 165.067 34.9941 163.302 34.003L162.323 35.747C164.444 36.9377 166.938 37.5114 169.767 37.5114V35.5114ZM163.308 34.0064C161.547 33.0014 160.192 31.5876 159.234 29.7434L157.459 30.6657C158.592 32.8443 160.215 34.5441 162.317 35.7436L163.308 34.0064ZM159.235 29.7454C158.277 27.8917 157.778 25.6636 157.778 23.0284H155.778C155.778 25.9159 156.325 28.4719 157.458 30.6637L159.235 29.7454ZM157.778 23.0284C157.778 20.4661 158.275 18.2642 159.236 16.3946L157.457 15.4804C156.327 17.679 155.778 20.2044 155.778 23.0284H157.778ZM159.236 16.3946C160.199 14.5207 161.543 13.0768 163.275 12.0398L162.248 10.3239C160.184 11.5595 158.585 13.2862 157.457 15.4804L159.236 16.3946ZM163.273 12.0411C165.004 11.0104 167.061 10.4773 169.477 10.4773V8.47727C166.758 8.47727 164.336 9.0805 162.25 10.3225L163.273 12.0411ZM169.477 10.4773C171.095 10.4773 172.584 10.7377 173.951 11.2491L174.651 9.37588C173.041 8.77365 171.314 8.47727 169.477 8.47727V10.4773ZM173.959 11.2523C175.326 11.7493 176.509 12.4961 177.518 13.4948L178.925 12.0734C177.707 10.8676 176.276 9.96656 174.643 9.37271L173.959 11.2523ZM177.522 13.4984C178.529 14.4854 179.33 15.7421 179.91 17.2936L181.783 16.5928C181.114 14.8034 180.164 13.2874 178.921 12.0698L177.522 13.4984ZM179.911 17.2957C180.484 18.8174 180.784 20.6363 180.784 22.7727H182.784C182.784 20.4547 182.459 18.3872 181.782 16.5907L179.911 17.2957ZM180.784 22.7727V24.767H182.784V22.7727H180.784ZM181.784 23.767H159.676V25.767H181.784V23.767ZM160.676 24.767V20.267H158.676V24.767H160.676ZM159.676 21.267H174.949V19.267H159.676V21.267ZM175.949 20.267C175.949 19.0722 175.688 17.9729 175.138 16.9978L173.396 17.9795C173.756 18.618 173.949 19.371 173.949 20.267H175.949ZM175.138 16.9978C174.594 16.0318 173.832 15.2696 172.866 14.7253L171.884 16.4678C172.532 16.8327 173.031 17.3318 173.396 17.9795L175.138 16.9978ZM172.88 14.7337C171.91 14.1655 170.805 13.8977 169.597 13.8977V15.8977C170.502 15.8977 171.249 16.0958 171.87 16.4595L172.88 14.7337ZM169.597 13.8977C168.333 13.8977 167.175 14.1927 166.15 14.8073L167.179 16.5223C167.86 16.1141 168.655 15.8977 169.597 15.8977V13.8977ZM166.154 14.8052C165.162 15.3948 164.378 16.1988 163.815 17.2046L165.56 18.1818C165.951 17.483 166.486 16.9347 167.176 16.5243L166.154 14.8052ZM163.818 17.1996C163.251 18.1979 162.968 19.3034 162.955 20.4947L164.954 20.5167C164.964 19.6397 165.169 18.8702 165.557 18.1868L163.818 17.1996ZM162.955 20.5057V24.7841H164.955V20.5057H162.955ZM162.955 24.7841C162.955 26.2016 163.216 27.4823 163.778 28.5936L165.563 27.6905C165.17 26.9154 164.955 25.9575 164.955 24.7841H162.955ZM163.783 28.6021C164.356 29.7081 165.175 30.5794 166.233 31.19L167.233 29.4577C166.518 29.0456 165.963 28.4623 165.558 27.682L163.783 28.6021ZM166.233 31.19C167.298 31.8043 168.528 32.0909 169.886 32.0909V30.0909C168.813 30.0909 167.941 29.8662 167.233 29.4577L166.233 31.19ZM169.886 32.0909C170.787 32.0909 171.636 31.9639 172.423 31.6971L171.781 29.8029C171.228 29.9906 170.599 30.0909 169.886 30.0909V32.0909ZM172.423 31.6971C173.221 31.4267 173.923 31.0134 174.514 30.4514L173.134 29.0031C172.77 29.3502 172.324 29.6188 171.781 29.8029L172.423 31.6971ZM174.514 30.4514C175.107 29.8865 175.55 29.2006 175.85 28.4115L173.98 27.7022C173.779 28.2312 173.496 28.6589 173.134 29.0031L174.514 30.4514ZM174.849 29.0546L181.565 29.4978L181.697 27.5022L174.981 27.059L174.849 29.0546ZM180.652 28.2933C180.346 29.7442 179.723 30.9961 178.782 32.0678L180.286 33.3868C181.459 32.0494 182.234 30.4831 182.609 28.7067L180.652 28.2933ZM178.782 32.0683C177.852 33.1295 176.635 33.9762 175.103 34.5956L175.852 36.4499C177.637 35.7284 179.125 34.7115 180.286 33.3863L178.782 32.0683ZM175.106 34.5943C173.599 35.1971 171.826 35.5114 169.767 35.5114V37.5114C172.027 37.5114 174.06 37.1666 175.849 36.4512L175.106 34.5943ZM193.102 28.4659L192.102 28.464L192.097 31.1315L193.855 29.1247L193.102 28.4659ZM193.119 19.7557V18.7557H192.121L192.119 19.7537L193.119 19.7557ZM194.176 19.7557V20.7557H194.641L194.94 20.4006L194.176 19.7557ZM202.562 9.81818V8.81818H202.098L201.798 9.17324L202.562 9.81818ZM210.898 9.81818L211.657 10.4686L213.07 8.81818H210.898V9.81818ZM199.631 22.9773V23.9773H200.091L200.39 23.6277L199.631 22.9773ZM197.909 22.9773V21.9773H197.456L197.157 22.3184L197.909 22.9773ZM186.523 36H185.523V37H186.523V36ZM186.523 1.09091V0.0909081H185.523V1.09091H186.523ZM193.784 1.09091H194.784V0.0909081H193.784V1.09091ZM193.784 36V37H194.784V36H193.784ZM202.886 36L202.058 36.5598L202.355 37H202.886V36ZM195.182 24.5966L194.454 23.9103L193.905 24.4928L194.353 25.1564L195.182 24.5966ZM200.023 19.4659L200.847 18.8993L200.145 17.879L199.295 18.7796L200.023 19.4659ZM211.392 36V37H213.293L212.216 35.4334L211.392 36ZM194.102 28.4679L194.119 19.7576L192.119 19.7537L192.102 28.464L194.102 28.4679ZM193.119 20.7557H194.176V18.7557H193.119V20.7557ZM194.94 20.4006L203.327 10.4631L201.798 9.17324L193.412 19.1107L194.94 20.4006ZM202.562 10.8182H210.898V8.81818H202.562V10.8182ZM210.138 9.16779L198.871 22.3269L200.39 23.6277L211.657 10.4686L210.138 9.16779ZM199.631 21.9773H197.909V23.9773H199.631V21.9773ZM197.157 22.3184L192.35 27.8071L193.855 29.1247L198.661 23.6361L197.157 22.3184ZM187.523 36V1.09091H185.523V36H187.523ZM186.523 2.09091H193.784V0.0909081H186.523V2.09091ZM192.784 1.09091V36H194.784V1.09091H192.784ZM193.784 35H186.523V37H193.784V35ZM203.715 35.4402L196.01 24.0368L194.353 25.1564L202.058 36.5598L203.715 35.4402ZM195.909 25.2829L200.75 20.1522L199.295 18.7796L194.454 23.9103L195.909 25.2829ZM199.199 20.0325L210.568 36.5666L212.216 35.4334L200.847 18.8993L199.199 20.0325ZM211.392 35H202.886V37H211.392V35Z" fill="black"/>
</svg>
