<svg width="102" height="102" viewBox="0 0 102 102" fill="none" xmlns="http://www.w3.org/2000/svg">
<path d="M98.0243 21.2703C94.3424 16.8935 87.5446 15.1082 74.5623 15.1082H27.4367C14.1573 15.1082 7.2443 17.0087 3.57625 21.6684C0 26.2117 0 32.9059 0 42.1708V59.8296C0 77.7786 4.2432 86.8918 27.4367 86.8918H74.5627C85.8208 86.8918 92.0593 85.3164 96.0952 81.4539C100.234 77.493 102 71.0259 102 59.8296V42.1708C102 32.4001 101.723 25.6665 98.0243 21.2703ZM65.4843 53.4381L44.0847 64.6223C43.6063 64.8723 43.0832 64.9964 42.5607 64.9964C41.9691 64.9964 41.3788 64.8371 40.8559 64.5206C39.8715 63.9241 39.2703 62.857 39.2703 61.7061V39.4095C39.2703 38.2605 39.8698 37.1945 40.8523 36.5976C41.8351 36.0007 43.0575 35.9599 44.0772 36.4897L65.4768 47.6018C66.5655 48.167 67.2493 49.291 67.2509 50.5173C67.2522 51.7446 66.5715 52.8702 65.4843 53.4381Z" fill="white"/>
</svg>
